<svg xmlns="http://www.w3.org/2000/svg" width="1200" height="630" viewBox="0 0 1200 630" fill="none" font-family="'Segoe UI', Arial, sans-serif">
  <defs>
    <radialGradient id="glow2" cx="70%" cy="0%" r="90%">
      <stop offset="0%" stop-color="#f5f5f0" stop-opacity="0.18"/>
      <stop offset="60%" stop-color="#080808" stop-opacity="0"/>
    </radialGradient>
  </defs>
  <rect width="1200" height="630" fill="#080808"/>
  <rect width="1200" height="630" fill="url(#glow2)"/>
  <g stroke="#f5f5f0" stroke-opacity="0.10">
    <path d="M0 160 H1200 M0 280 H1200 M0 400 H1200 M0 520 H1200"/>
    <path d="M820 0 V630 M960 0 V630 M1100 0 V630"/>
  </g>
  <g>
    <rect x="840" y="330" width="280" height="80" rx="10" fill="#f5f5f0" fill-opacity="0.06" stroke="#f5f5f0" stroke-opacity="0.25"/>
    <rect x="840" y="430" width="280" height="80" rx="10" fill="#f5f5f0" fill-opacity="0.04" stroke="#f5f5f0" stroke-opacity="0.18"/>
    <circle cx="880" cy="370" r="10" fill="#f5f5f0" fill-opacity="0.8"/>
    <rect x="905" y="362" width="150" height="8" rx="4" fill="#f5f5f0" fill-opacity="0.45"/>
    <circle cx="880" cy="470" r="10" fill="#f5f5f0" fill-opacity="0.5"/>
    <rect x="905" y="462" width="120" height="8" rx="4" fill="#f5f5f0" fill-opacity="0.3"/>
  </g>
  <text x="80" y="120" fill="#f5f5f0" fill-opacity="0.5" font-size="22" letter-spacing="6" font-weight="700">JOURNAL · ENGINEERING</text>
  <text x="78" y="260" fill="#f5f5f0" font-size="84" font-weight="800" letter-spacing="-2">A custom CMS</text>
  <text x="78" y="352" fill="#f5f5f0" font-size="84" font-weight="800" letter-spacing="-2">with Next.js</text>
  <text x="78" y="444" fill="#f5f5f0" font-size="84" font-weight="800" letter-spacing="-2">+ Firebase</text>
  <g>
    <circle cx="88" cy="560" r="9" fill="#f5f5f0"/>
    <text x="110" y="568" fill="#f5f5f0" fill-opacity="0.7" font-size="26" font-weight="700">hassanahmed.site</text>
  </g>
</svg>
